<mxfile host="app.diagrams.net" modified="2023-05-28T18:29:22.312Z" agent="Mozilla/5.0 (Windows NT 10.0; Win64; x64) AppleWebKit/537.36 (KHTML, like Gecko) Chrome/113.0.0.0 Safari/537.36" etag="9DbM3yt_CSFf711OFu4B" version="21.3.2" type="device">
  <diagram name="Страница 1" id="fADdNIsEgAehtVy8T7Zf">
    <mxGraphModel dx="2206" dy="1075" grid="0" gridSize="10" guides="1" tooltips="1" connect="1" arrows="1" fold="1" page="1" pageScale="1" pageWidth="827" pageHeight="1169" math="0" shadow="0">
      <root>
        <mxCell id="0" />
        <mxCell id="1" parent="0" />
        <mxCell id="68BD-tJcS8FgwoahVo56-23" value="" style="rounded=1;whiteSpace=wrap;html=1;gradientColor=none;strokeColor=default;arcSize=5;dashed=1;strokeWidth=2;" vertex="1" parent="1">
          <mxGeometry x="621" y="218" width="723" height="846" as="geometry" />
        </mxCell>
        <mxCell id="68BD-tJcS8FgwoahVo56-1" value="&lt;font style=&quot;font-size: 20px;&quot;&gt;Сервер электронной подписи&lt;/font&gt;" style="dashed=1;rounded=1;absoluteArcSize=1;arcSize=20;html=1;verticalAlign=top;align=left;spacingTop=5;spacingLeft=10;whiteSpace=wrap;fillColor=#f5f5f5;strokeColor=#666666;fontColor=#333333;fontStyle=0" vertex="1" parent="1">
          <mxGeometry x="707.87" y="853" width="612.13" height="189" as="geometry" />
        </mxCell>
        <mxCell id="68BD-tJcS8FgwoahVo56-2" value="&lt;font style=&quot;font-size: 14px;&quot;&gt;&lt;span&gt;REST API&lt;br&gt;&lt;/span&gt;&lt;/font&gt;" style="rounded=1;whiteSpace=wrap;html=1;dashed=1;textDirection=ltr;rotation=-90;fontSize=14;fontStyle=0;fillColor=#f5f5f5;fontColor=#333333;strokeColor=#666666;" vertex="1" parent="1">
          <mxGeometry x="642.89" y="932.85" width="86.2" height="45.01" as="geometry" />
        </mxCell>
        <mxCell id="2YxdHcAJXAzJK9A_Y6uM-9" value="&lt;font style=&quot;font-size: 20px;&quot;&gt;Сервер основного приложения&lt;/font&gt;" style="dashed=1;rounded=1;absoluteArcSize=1;arcSize=20;html=1;verticalAlign=top;align=left;spacingTop=5;spacingLeft=10;whiteSpace=wrap;fillColor=#f5f5f5;fontColor=#333333;strokeColor=#666666;fontStyle=0" parent="1" vertex="1">
          <mxGeometry x="707.87" y="278" width="620" height="310" as="geometry" />
        </mxCell>
        <mxCell id="2YxdHcAJXAzJK9A_Y6uM-3" value="&lt;font style=&quot;font-size: 18px;&quot;&gt;&lt;span&gt;API GATEWAY&lt;/span&gt;&lt;/font&gt;" style="rounded=1;whiteSpace=wrap;html=1;rotation=-90;fillColor=#d5e8d4;strokeColor=#82b366;fontStyle=0" parent="1" vertex="1">
          <mxGeometry x="199.5" y="638.88" width="665.75" height="65" as="geometry" />
        </mxCell>
        <mxCell id="2YxdHcAJXAzJK9A_Y6uM-5" value="&lt;font style=&quot;font-size: 20px;&quot;&gt;Сервер документов&lt;/font&gt;" style="dashed=1;rounded=1;absoluteArcSize=1;arcSize=20;html=1;verticalAlign=top;align=left;spacingTop=5;spacingLeft=10;whiteSpace=wrap;fillColor=#f5f5f5;strokeColor=#666666;fontColor=#333333;fontStyle=0" parent="1" vertex="1">
          <mxGeometry x="707.87" y="628" width="612.13" height="189" as="geometry" />
        </mxCell>
        <mxCell id="2YxdHcAJXAzJK9A_Y6uM-35" style="edgeStyle=orthogonalEdgeStyle;rounded=0;orthogonalLoop=1;jettySize=auto;html=1;exitX=0.419;exitY=-0.02;exitDx=0;exitDy=0;exitPerimeter=0;strokeWidth=1;fontStyle=0" parent="1" source="2YxdHcAJXAzJK9A_Y6uM-8" edge="1">
          <mxGeometry relative="1" as="geometry">
            <mxPoint x="563.87" y="451.78999999999996" as="targetPoint" />
            <Array as="points">
              <mxPoint x="663.87" y="453" />
            </Array>
          </mxGeometry>
        </mxCell>
        <mxCell id="2YxdHcAJXAzJK9A_Y6uM-37" style="edgeStyle=orthogonalEdgeStyle;rounded=0;orthogonalLoop=1;jettySize=auto;html=1;exitX=0.695;exitY=-0.025;exitDx=0;exitDy=0;endArrow=none;endFill=0;startArrow=classic;startFill=1;exitPerimeter=0;strokeWidth=1;fontStyle=0" parent="1" source="2YxdHcAJXAzJK9A_Y6uM-8" edge="1">
          <mxGeometry relative="1" as="geometry">
            <mxPoint x="567.87" y="411" as="targetPoint" />
          </mxGeometry>
        </mxCell>
        <mxCell id="2YxdHcAJXAzJK9A_Y6uM-8" value="&lt;font style=&quot;font-size: 14px;&quot;&gt;&lt;span&gt;REST API&lt;br&gt;&lt;/span&gt;&lt;/font&gt;" style="rounded=1;whiteSpace=wrap;html=1;dashed=1;textDirection=ltr;rotation=-90;fontSize=14;fillColor=#f5f5f5;fontColor=#333333;strokeColor=#666666;fontStyle=0" parent="1" vertex="1">
          <mxGeometry x="611.72" y="418" width="148.56" height="45.01" as="geometry" />
        </mxCell>
        <mxCell id="2YxdHcAJXAzJK9A_Y6uM-22" value="&lt;font size=&quot;1&quot; style=&quot;&quot;&gt;&lt;b style=&quot;font-size: 20px;&quot;&gt;&lt;br&gt;Клиентское приложение&lt;/b&gt;&lt;/font&gt;" style="sketch=0;outlineConnect=0;gradientColor=none;fontColor=#000000;strokeColor=none;fillColor=#000000;dashed=0;verticalLabelPosition=bottom;verticalAlign=top;align=center;html=1;fontSize=12;fontStyle=0;aspect=fixed;shape=mxgraph.aws4.illustration_desktop;pointerEvents=1" parent="1" vertex="1">
          <mxGeometry x="78" y="661.86" width="100" height="91" as="geometry" />
        </mxCell>
        <mxCell id="2YxdHcAJXAzJK9A_Y6uM-48" style="edgeStyle=orthogonalEdgeStyle;rounded=0;orthogonalLoop=1;jettySize=auto;html=1;exitX=0.25;exitY=0;exitDx=0;exitDy=0;endArrow=none;endFill=0;startArrow=classic;startFill=1;strokeWidth=1;entryX=1;entryY=0.25;entryDx=0;entryDy=0;fontStyle=0" parent="1" edge="1" target="68BD-tJcS8FgwoahVo56-11">
          <mxGeometry relative="1" as="geometry">
            <mxPoint x="500.87" y="681.5" as="sourcePoint" />
            <mxPoint x="407.87" y="682" as="targetPoint" />
          </mxGeometry>
        </mxCell>
        <mxCell id="2YxdHcAJXAzJK9A_Y6uM-49" style="edgeStyle=orthogonalEdgeStyle;rounded=0;orthogonalLoop=1;jettySize=auto;html=1;exitX=0.25;exitY=0;exitDx=0;exitDy=0;strokeWidth=1;entryX=1;entryY=0.75;entryDx=0;entryDy=0;fontStyle=0" parent="1" edge="1" target="68BD-tJcS8FgwoahVo56-11">
          <mxGeometry relative="1" as="geometry">
            <mxPoint x="500.87" y="722" as="sourcePoint" />
            <mxPoint x="407.87" y="722" as="targetPoint" />
          </mxGeometry>
        </mxCell>
        <mxCell id="2YxdHcAJXAzJK9A_Y6uM-105" style="edgeStyle=orthogonalEdgeStyle;rounded=0;orthogonalLoop=1;jettySize=auto;html=1;entryX=0.75;entryY=0;entryDx=0;entryDy=0;exitX=0.75;exitY=1;exitDx=0;exitDy=0;dashed=1;startArrow=classic;startFill=1;strokeWidth=1;fontStyle=0" parent="1" source="2YxdHcAJXAzJK9A_Y6uM-57" target="2YxdHcAJXAzJK9A_Y6uM-64" edge="1">
          <mxGeometry relative="1" as="geometry" />
        </mxCell>
        <mxCell id="2YxdHcAJXAzJK9A_Y6uM-57" value="&lt;font size=&quot;1&quot; style=&quot;&quot;&gt;&lt;span style=&quot;font-size: 18px;&quot;&gt;Сервис &lt;br&gt;основного &lt;br&gt;приложения&lt;/span&gt;&lt;/font&gt;" style="rounded=1;whiteSpace=wrap;html=1;fillColor=#ffcccc;strokeColor=#36393d;fontStyle=0" parent="1" vertex="1">
          <mxGeometry x="777.87" y="337" width="280" height="206.11" as="geometry" />
        </mxCell>
        <mxCell id="2YxdHcAJXAzJK9A_Y6uM-61" value="&lt;blockquote style=&quot;margin: 0 0 0 40px; border: none; padding: 0px;&quot;&gt;&lt;/blockquote&gt;&lt;font style=&quot;font-size: 18px;&quot;&gt;&lt;span&gt;&lt;span style=&quot;background-color: initial;&quot;&gt;&lt;br&gt;&lt;/span&gt;Файловое хранилище&lt;br&gt;&lt;/span&gt;&lt;/font&gt;" style="strokeWidth=2;html=1;shape=mxgraph.flowchart.database;whiteSpace=wrap;fillColor=#dae8fc;strokeColor=#6c8ebf;fontStyle=0" parent="1" vertex="1">
          <mxGeometry x="1146" y="638" width="150" height="170.5" as="geometry" />
        </mxCell>
        <mxCell id="2YxdHcAJXAzJK9A_Y6uM-107" style="edgeStyle=orthogonalEdgeStyle;rounded=0;orthogonalLoop=1;jettySize=auto;html=1;strokeWidth=1;fontStyle=0" parent="1" source="2YxdHcAJXAzJK9A_Y6uM-64" target="2YxdHcAJXAzJK9A_Y6uM-61" edge="1">
          <mxGeometry relative="1" as="geometry">
            <Array as="points">
              <mxPoint x="1114" y="719" />
              <mxPoint x="1114" y="719" />
            </Array>
          </mxGeometry>
        </mxCell>
        <mxCell id="2YxdHcAJXAzJK9A_Y6uM-64" value="&lt;span style=&quot;font-size: 18px;&quot;&gt;&lt;span&gt;Сервис &lt;br&gt;файлового&amp;nbsp; &lt;br&gt;хранилища&lt;/span&gt;&lt;/span&gt;" style="rounded=1;whiteSpace=wrap;html=1;fillColor=#cdeb8b;strokeColor=#36393d;fontStyle=0" parent="1" vertex="1">
          <mxGeometry x="777.87" y="671.12" width="280" height="119.84" as="geometry" />
        </mxCell>
        <mxCell id="2YxdHcAJXAzJK9A_Y6uM-72" style="edgeStyle=orthogonalEdgeStyle;rounded=0;orthogonalLoop=1;jettySize=auto;html=1;endArrow=none;endFill=0;startArrow=classic;startFill=1;strokeWidth=1;fontStyle=0" parent="1" edge="1">
          <mxGeometry relative="1" as="geometry">
            <mxPoint x="1127.87" y="412.63" as="sourcePoint" />
            <mxPoint x="1057.87" y="412.43" as="targetPoint" />
          </mxGeometry>
        </mxCell>
        <mxCell id="2YxdHcAJXAzJK9A_Y6uM-73" style="edgeStyle=orthogonalEdgeStyle;rounded=0;orthogonalLoop=1;jettySize=auto;html=1;strokeWidth=1;fontStyle=0" parent="1" edge="1">
          <mxGeometry relative="1" as="geometry">
            <mxPoint x="1127.87" y="452.63" as="sourcePoint" />
            <mxPoint x="1057.87" y="452.43" as="targetPoint" />
          </mxGeometry>
        </mxCell>
        <mxCell id="2YxdHcAJXAzJK9A_Y6uM-82" value="&lt;font size=&quot;1&quot; style=&quot;&quot;&gt;&lt;span style=&quot;font-size: 18px;&quot;&gt;Сервис &lt;br&gt;электронной &lt;br&gt;подписи &lt;br&gt;документов&lt;/span&gt;&lt;/font&gt;" style="rounded=1;whiteSpace=wrap;html=1;fillColor=#e1d5e7;strokeColor=#9673a6;fontStyle=0" parent="1" vertex="1">
          <mxGeometry x="774" y="895.43" width="280" height="119.84" as="geometry" />
        </mxCell>
        <mxCell id="2YxdHcAJXAzJK9A_Y6uM-87" value="&lt;font style=&quot;font-size: 18px;&quot;&gt;Запрос&lt;/font&gt;" style="text;html=1;strokeColor=none;fillColor=none;align=center;verticalAlign=middle;whiteSpace=wrap;rounded=0;fontStyle=0" parent="1" vertex="1">
          <mxGeometry x="417.87" y="662" width="60" height="20" as="geometry" />
        </mxCell>
        <mxCell id="2YxdHcAJXAzJK9A_Y6uM-88" value="&lt;font style=&quot;font-size: 18px;&quot;&gt;Ответ&lt;/font&gt;" style="text;html=1;strokeColor=none;fillColor=none;align=center;verticalAlign=middle;whiteSpace=wrap;rounded=0;fontSize=14;fontStyle=0" parent="1" vertex="1">
          <mxGeometry x="417.87" y="722" width="60" height="20" as="geometry" />
        </mxCell>
        <mxCell id="2YxdHcAJXAzJK9A_Y6uM-95" value="&lt;font style=&quot;font-size: 14px;&quot;&gt;&lt;span&gt;REST API&lt;br&gt;&lt;/span&gt;&lt;/font&gt;" style="rounded=1;whiteSpace=wrap;html=1;dashed=1;textDirection=ltr;rotation=-90;fontSize=14;fontStyle=0;fillColor=#f5f5f5;fontColor=#333333;strokeColor=#666666;" parent="1" vertex="1">
          <mxGeometry x="642.89" y="707.85" width="86.2" height="45.01" as="geometry" />
        </mxCell>
        <mxCell id="2YxdHcAJXAzJK9A_Y6uM-106" value="&lt;font style=&quot;font-size: 14px;&quot;&gt;&lt;span&gt;sync&lt;/span&gt;&lt;/font&gt;" style="text;html=1;strokeColor=none;fillColor=none;align=center;verticalAlign=middle;whiteSpace=wrap;rounded=0;fontStyle=0" parent="1" vertex="1">
          <mxGeometry x="987.87" y="588" width="60" height="40" as="geometry" />
        </mxCell>
        <mxCell id="2YxdHcAJXAzJK9A_Y6uM-111" style="edgeStyle=orthogonalEdgeStyle;rounded=0;orthogonalLoop=1;jettySize=auto;html=1;strokeWidth=1;entryX=0.348;entryY=0.994;entryDx=0;entryDy=0;entryPerimeter=0;fontStyle=0" parent="1" edge="1" target="2YxdHcAJXAzJK9A_Y6uM-61">
          <mxGeometry relative="1" as="geometry">
            <mxPoint x="1054" y="957.76" as="sourcePoint" />
            <mxPoint x="1124" y="957.76" as="targetPoint" />
            <Array as="points">
              <mxPoint x="1198" y="958" />
              <mxPoint x="1198" y="873" />
              <mxPoint x="1198" y="873" />
            </Array>
          </mxGeometry>
        </mxCell>
        <mxCell id="2YxdHcAJXAzJK9A_Y6uM-112" style="edgeStyle=orthogonalEdgeStyle;rounded=0;orthogonalLoop=1;jettySize=auto;html=1;endArrow=none;endFill=0;startArrow=classic;startFill=1;strokeWidth=1;entryX=0.554;entryY=0.998;entryDx=0;entryDy=0;entryPerimeter=0;fontStyle=0" parent="1" edge="1" target="2YxdHcAJXAzJK9A_Y6uM-61">
          <mxGeometry relative="1" as="geometry">
            <mxPoint x="1054" y="977.3899999999999" as="sourcePoint" />
            <mxPoint x="1124" y="977.3899999999999" as="targetPoint" />
            <Array as="points">
              <mxPoint x="1229" y="977" />
            </Array>
          </mxGeometry>
        </mxCell>
        <mxCell id="2YxdHcAJXAzJK9A_Y6uM-114" value="&lt;blockquote style=&quot;margin: 0 0 0 40px; border: none; padding: 0px;&quot;&gt;&lt;/blockquote&gt;&lt;font style=&quot;font-size: 18px;&quot;&gt;&lt;span&gt;&lt;br&gt;База данных&lt;br&gt;PostgreSQL&lt;br&gt;&lt;/span&gt;&lt;/font&gt;" style="strokeWidth=2;html=1;shape=mxgraph.flowchart.database;whiteSpace=wrap;fillColor=#dae8fc;strokeColor=#6c8ebf;fontStyle=0" parent="1" vertex="1">
          <mxGeometry x="1127.87" y="331" width="150" height="192.49" as="geometry" />
        </mxCell>
        <mxCell id="68BD-tJcS8FgwoahVo56-3" style="edgeStyle=orthogonalEdgeStyle;rounded=0;orthogonalLoop=1;jettySize=auto;html=1;exitX=0.419;exitY=-0.02;exitDx=0;exitDy=0;exitPerimeter=0;strokeWidth=1;entryX=0.378;entryY=1.008;entryDx=0;entryDy=0;entryPerimeter=0;fontStyle=0" edge="1" parent="1" target="2YxdHcAJXAzJK9A_Y6uM-3">
          <mxGeometry relative="1" as="geometry">
            <mxPoint x="577" y="752" as="targetPoint" />
            <Array as="points" />
            <mxPoint x="665.13" y="752.86" as="sourcePoint" />
          </mxGeometry>
        </mxCell>
        <mxCell id="68BD-tJcS8FgwoahVo56-4" style="edgeStyle=orthogonalEdgeStyle;rounded=0;orthogonalLoop=1;jettySize=auto;html=1;exitX=0.695;exitY=-0.025;exitDx=0;exitDy=0;endArrow=none;endFill=0;startArrow=classic;startFill=1;exitPerimeter=0;strokeWidth=1;entryX=0.439;entryY=0.98;entryDx=0;entryDy=0;entryPerimeter=0;fontStyle=0" edge="1" parent="1" target="2YxdHcAJXAzJK9A_Y6uM-3">
          <mxGeometry relative="1" as="geometry">
            <mxPoint x="570" y="710.86" as="targetPoint" />
            <mxPoint x="664.13" y="711.86" as="sourcePoint" />
          </mxGeometry>
        </mxCell>
        <mxCell id="68BD-tJcS8FgwoahVo56-8" style="edgeStyle=orthogonalEdgeStyle;rounded=0;orthogonalLoop=1;jettySize=auto;html=1;exitX=0.419;exitY=-0.02;exitDx=0;exitDy=0;exitPerimeter=0;strokeWidth=1;fontStyle=0" edge="1" parent="1">
          <mxGeometry relative="1" as="geometry">
            <mxPoint x="566" y="975.74" as="targetPoint" />
            <Array as="points" />
            <mxPoint x="663.13" y="975.74" as="sourcePoint" />
          </mxGeometry>
        </mxCell>
        <mxCell id="68BD-tJcS8FgwoahVo56-9" style="edgeStyle=orthogonalEdgeStyle;rounded=0;orthogonalLoop=1;jettySize=auto;html=1;exitX=0.695;exitY=-0.025;exitDx=0;exitDy=0;endArrow=none;endFill=0;startArrow=classic;startFill=1;exitPerimeter=0;strokeWidth=1;fontStyle=0" edge="1" parent="1">
          <mxGeometry relative="1" as="geometry">
            <mxPoint x="566" y="934.74" as="targetPoint" />
            <mxPoint x="662.13" y="934.74" as="sourcePoint" />
          </mxGeometry>
        </mxCell>
        <mxCell id="68BD-tJcS8FgwoahVo56-11" value="&lt;font style=&quot;font-size: 18px;&quot;&gt;&lt;span&gt;Криптограф.&lt;br&gt;модуль&lt;/span&gt;&lt;/font&gt;" style="rounded=1;whiteSpace=wrap;html=1;fillColor=#ffe6cc;strokeColor=#d79b00;fontStyle=0" vertex="1" parent="1">
          <mxGeometry x="244" y="661" width="136" height="81" as="geometry" />
        </mxCell>
        <mxCell id="68BD-tJcS8FgwoahVo56-12" style="edgeStyle=orthogonalEdgeStyle;rounded=0;orthogonalLoop=1;jettySize=auto;html=1;endArrow=none;endFill=0;startArrow=classic;startFill=1;strokeWidth=1;exitX=0;exitY=0.25;exitDx=0;exitDy=0;fontStyle=0" edge="1" parent="1" source="68BD-tJcS8FgwoahVo56-11">
          <mxGeometry relative="1" as="geometry">
            <mxPoint x="271" y="681" as="sourcePoint" />
            <mxPoint x="178" y="681.5" as="targetPoint" />
          </mxGeometry>
        </mxCell>
        <mxCell id="68BD-tJcS8FgwoahVo56-13" style="edgeStyle=orthogonalEdgeStyle;rounded=0;orthogonalLoop=1;jettySize=auto;html=1;exitX=0;exitY=0.75;exitDx=0;exitDy=0;strokeWidth=1;fontStyle=0" edge="1" parent="1" source="68BD-tJcS8FgwoahVo56-11">
          <mxGeometry relative="1" as="geometry">
            <mxPoint x="271" y="721.5" as="sourcePoint" />
            <mxPoint x="178" y="721.5" as="targetPoint" />
          </mxGeometry>
        </mxCell>
        <mxCell id="68BD-tJcS8FgwoahVo56-16" value="&lt;font style=&quot;font-size: 18px;&quot;&gt;&lt;span&gt;Криптограф.&lt;br&gt;модуль&lt;/span&gt;&lt;/font&gt;" style="rounded=1;whiteSpace=wrap;html=1;fillColor=#ffe6cc;strokeColor=#d79b00;fontStyle=0" vertex="1" parent="1">
          <mxGeometry x="712.87" y="399.56" width="118" height="81" as="geometry" />
        </mxCell>
        <mxCell id="68BD-tJcS8FgwoahVo56-17" value="&lt;font style=&quot;font-size: 18px;&quot;&gt;&lt;span&gt;Криптограф.&lt;br&gt;модуль&lt;/span&gt;&lt;/font&gt;" style="rounded=1;whiteSpace=wrap;html=1;fillColor=#ffe6cc;strokeColor=#d79b00;fontStyle=0" vertex="1" parent="1">
          <mxGeometry x="712.87" y="686" width="118" height="81" as="geometry" />
        </mxCell>
        <mxCell id="68BD-tJcS8FgwoahVo56-18" value="&lt;font style=&quot;font-size: 18px;&quot;&gt;&lt;span&gt;Криптограф.&lt;br&gt;модуль&lt;/span&gt;&lt;/font&gt;" style="rounded=1;whiteSpace=wrap;html=1;fillColor=#ffe6cc;strokeColor=#d79b00;fontStyle=0" vertex="1" parent="1">
          <mxGeometry x="712.87" y="914.85" width="123" height="81" as="geometry" />
        </mxCell>
        <mxCell id="68BD-tJcS8FgwoahVo56-22" style="edgeStyle=orthogonalEdgeStyle;rounded=0;orthogonalLoop=1;jettySize=auto;html=1;strokeWidth=1;endArrow=none;endFill=0;startArrow=classic;startFill=1;fontStyle=0" edge="1" parent="1">
          <mxGeometry relative="1" as="geometry">
            <Array as="points">
              <mxPoint x="1107.87" y="747" />
              <mxPoint x="1107.87" y="747" />
            </Array>
            <mxPoint x="1058" y="747" as="sourcePoint" />
            <mxPoint x="1146" y="747" as="targetPoint" />
          </mxGeometry>
        </mxCell>
        <mxCell id="68BD-tJcS8FgwoahVo56-25" value="&lt;span style=&quot;font-size: 20px;&quot;&gt;&lt;b&gt;Распределенная система&lt;/b&gt;&lt;/span&gt;" style="text;html=1;strokeColor=none;fillColor=none;align=center;verticalAlign=middle;whiteSpace=wrap;rounded=0;" vertex="1" parent="1">
          <mxGeometry x="633" y="234" width="268" height="30" as="geometry" />
        </mxCell>
      </root>
    </mxGraphModel>
  </diagram>
</mxfile>
